<svg enable-background="new 0 0 120 60" height="60" viewBox="0 0 120 60" width="120" xmlns="http://www.w3.org/2000/svg" xmlns:xlink="http://www.w3.org/1999/xlink"><linearGradient id="a" gradientTransform="matrix(2500 0 0 -2250 1256997 2316583)" gradientUnits="userSpaceOnUse" x1="-502.7886" x2="-502.7886" y1="1029.5864" y2="1029.5732"><stop offset="0" stop-color="#29abe2"/><stop offset=".4757" stop-color="#28a9e1"/><stop offset=".6639" stop-color="#23a2dc"/><stop offset=".8012" stop-color="#1a96d4"/><stop offset=".913" stop-color="#0e85c9"/><stop offset="1" stop-color="#0071bc"/></linearGradient><path d="m41.9 39.8c0 3.6-3 6.6-6.6 6.6h-19.7c-3.6 0-6.6-3-6.6-6.6v-19.6c0-3.6 3-6.6 6.6-6.6h19.7c3.6 0 6.6 3 6.6 6.6z" fill="#115a91"/><path d="m35.3 17.2c1.6 0 3 1.3 3 3v16.4c0 1.6-1.3 3-3 3h-19.7c-1.6 0-3-1.3-3-3v-16.4c0-1.6 1.3-3 3-3z" fill="#fff"/><path d="m35.3 17.2c1.6 0 3 1.3 3 3v16.4c0 1.6-1.3 3-3 3h-19.7c-1.6 0-3-1.3-3-3v-16.4c0-1.6 1.3-3 3-3zm0-3.6h-19.7c-3.6 0-6.6 3-6.6 6.6v16.4c0 3.6 3 6.6 6.6 6.6h19.7c3.6 0 6.6-3 6.6-6.6v-16.4c0-3.6-3-6.6-6.6-6.6z" fill="url(#a)"/><g fill="#4d4d4d"><path d="m34.7 20.5v15.7h-8.2v-3.9h4.5v-8.2h-4.6v-3.6z"/><path d="m24.5 20.5v3.6h-4.6v8.2h4.6v3.9h-8.2v-15.7z"/><path d="m48.5 36.3v-11.8h3.5c.6 0 1.2.1 1.7.2s.9.3 1.3.5.6.5.8.9.3.8.3 1.3c0 .6-.1 1.1-.4 1.6s-.7.8-1.3 1c.7.1 1.3.4 1.8.9.4.5.7 1.1.7 1.9 0 .6-.1 1.1-.3 1.5s-.5.8-.9 1.1-.9.5-1.4.6c-.6.1-1.2.2-1.8.2h-4zm1.5-6.8h1.7c1 0 1.7-.2 2.2-.5.4-.3.7-.8.7-1.4 0-.7-.2-1.2-.7-1.5s-1.2-.4-2.1-.4h-1.8zm0 5.6h2.1c1 0 1.8-.2 2.4-.6s.8-1 .8-1.8c0-.7-.3-1.3-.8-1.6-.6-.3-1.4-.5-2.4-.5h-2.1z"/><path d="m59 36.3v-8.8h1.2l.1 1.6h.1c.3-.6.7-1 1.1-1.3s.9-.5 1.4-.5c.3 0 .7.1.9.2l-.3 1.3c-.1 0-.3-.1-.4-.1s-.3 0-.5 0c-.4 0-.8.2-1.2.5s-.8.8-1.1 1.6v5.6h-1.3z"/><path d="m66.8 36.5c-.7 0-1.3-.2-1.8-.6s-.7-1-.7-1.8c0-1 .4-1.7 1.3-2.2s2.2-.9 4.1-1.1c0-.3 0-.5-.1-.8s-.1-.5-.3-.7c-.1-.2-.3-.4-.6-.5-.2-.1-.5-.2-.9-.2-.5 0-1 .1-1.4.3s-.8.4-1.2.6l-.6-1c.4-.3.9-.5 1.5-.8.6-.2 1.2-.4 1.9-.4 1.1 0 1.8.3 2.3 1s.7 1.5.7 2.6v5.4h-1.2l-.1-1h-.1c-.4.3-.9.6-1.4.9-.3.2-.8.3-1.4.3zm.5-1.2c.4 0 .8-.1 1.2-.3s.8-.5 1.2-.9v-2.4c-.7.1-1.4.2-1.9.3s-.9.3-1.2.5-.5.4-.7.6c-.1.2-.2.5-.2.8 0 .5.2.9.5 1.1s.6.3 1.1.3z"/><path d="m77.4 36.5c-.6 0-1.1-.1-1.6-.3s-.9-.5-1.3-.9-.7-.9-.9-1.4c-.2-.6-.3-1.2-.3-1.9s.1-1.4.3-2 .5-1.1.9-1.5.8-.7 1.3-.9 1-.3 1.6-.3 1.1.1 1.5.3.8.4 1.1.7l-.8 1c-.3-.2-.5-.4-.8-.6-.3-.1-.6-.2-.9-.2-.4 0-.8.1-1.1.2-.3.2-.6.4-.9.7-.2.3-.4.7-.6 1.1-.1.4-.2.9-.2 1.4s.1 1 .2 1.4.3.8.6 1.1c.2.3.5.5.9.7.3.2.7.2 1.1.2s.8-.1 1.1-.3.7-.4.9-.6l.6 1c-.4.3-.8.6-1.3.8-.4.2-.9.3-1.4.3z"/><path d="m82.1 36.3v-12.8h1.5v8.7h.1l3.7-4.6h1.6l-2.9 3.5 3.3 5.3h-1.6l-2.6-4.2-1.6 1.8v2.3z"/><path d="m94.3 36.5c-.6 0-1.1-.1-1.7-.3-.5-.2-1-.5-1.3-.9-.4-.4-.7-.9-.9-1.4-.2-.6-.3-1.2-.3-1.9s.1-1.4.3-1.9c.2-.6.5-1.1.9-1.5s.8-.7 1.3-.9 1-.3 1.5-.3c.6 0 1 .1 1.5.3.4.2.8.5 1.1.8.3.4.5.8.7 1.3s.2 1.1.2 1.7v.5.4h-5.9c.1.9.4 1.7.9 2.2s1.2.8 2 .8c.4 0 .8-.1 1.2-.2s.7-.3 1-.5l.5 1c-.4.2-.8.5-1.3.6-.6.1-1.1.2-1.7.2zm-2.8-5.3h4.7c0-.9-.2-1.6-.6-2-.4-.5-.9-.7-1.6-.7-.3 0-.6.1-.9.2s-.5.3-.8.5c-.2.2-.4.5-.6.9 0 .3-.1.7-.2 1.1z"/><path d="m102.3 36.5c-.5 0-.9-.1-1.2-.2s-.6-.3-.8-.6-.3-.6-.4-.9c-.1-.4-.1-.8-.1-1.2v-4.9h-1.3v-1.1l1.4-.1.2-2.5h1.2v2.5h2.4v1.2h-2.4v4.9c0 .5.1 1 .3 1.3s.5.4 1.1.4c.2 0 .3 0 .5-.1.2 0 .3-.1.5-.2l.3 1.1c-.2.1-.5.2-.8.2-.4.2-.6.2-.9.2z"/><path d="m107.7 36.5c-.6 0-1.2-.1-1.8-.3s-1.1-.5-1.5-.9l.7-1c.4.3.8.6 1.2.8s.9.3 1.4.3c.6 0 1-.1 1.3-.4s.4-.6.4-1c0-.2-.1-.4-.2-.6s-.3-.3-.5-.4-.4-.2-.6-.3-.5-.2-.7-.3c-.3-.1-.6-.2-.9-.4-.3-.1-.6-.3-.8-.5s-.4-.4-.6-.7-.2-.6-.2-1c0-.3.1-.7.2-1s.3-.6.6-.8.6-.4.9-.5c.4-.1.8-.2 1.3-.2.6 0 1.1.1 1.5.3.5.2.9.4 1.2.7l-.7.9c-.3-.2-.6-.4-.9-.6-.3-.1-.7-.2-1.1-.2-.6 0-1 .1-1.2.4-.3.3-.4.5-.4.9 0 .2.1.4.2.5.1.2.3.3.4.4.2.1.4.2.6.3s.5.2.7.3c.3.1.6.2.9.4.3.1.6.3.9.5s.5.4.6.7.2.6.2 1-.1.7-.2 1-.3.6-.6.8-.6.4-1 .6c-.3.3-.8.3-1.3.3z"/></g></svg>