<svg height="60" viewBox="0 0 120 60" width="120" xmlns="http://www.w3.org/2000/svg"><g stroke-width=".255988"><path d="m45.233743 24.551797v.880601h-6.45091v3.916112h6.041328v.880344h-6.041328v4.28064h6.526683v.880344h-7.559341v-10.838041zm5.755645 4.083273a2.0824664 2.0824664 0 0 0 -1.487549-.50097 2.4190912 2.4190912 0 0 0 -1.198794.288243 2.6323296 2.6323296 0 0 0 -.857562.759006 3.447653 3.447653 0 0 0 -.516584 1.070032 4.3697235 4.3697235 0 0 0 0 2.444178 3.4430452 3.4430452 0 0 0 .516328 1.070032 2.6272099 2.6272099 0 0 0 .857562.759006 2.4165313 2.4165313 0 0 0 1.19905.288243 2.1206087 2.1206087 0 0 0 .835034-.166905 2.2450191 2.2450191 0 0 0 .698337-.462827 2.4764327 2.4764327 0 0 0 .500458-.70576 2.6095467 2.6095467 0 0 0 .243189-.895704h.956117a3.6125096 3.6125096 0 0 1 -1.047505 2.223772 3.068278 3.068278 0 0 1 -2.18563.796892 3.669339 3.669339 0 0 1 -1.585849-.326385 3.3652247 3.3652247 0 0 1 -1.161419-.887768 3.8748978 3.8748978 0 0 1 -.713696-1.313221 5.4028931 5.4028931 0 0 1 0-3.202672 3.8769457 3.8769457 0 0 1 .713696-1.313221 3.4566126 3.4566126 0 0 1 1.161419-.895448 3.6012461 3.6012461 0 0 1 1.585849-.334065 3.4061828 3.4061828 0 0 1 2.13264.66813q.872921.66813 1.040081 2.018726h-.956629a2.6307937 2.6307937 0 0 0 -.728543-1.381314zm3.567456-4.083273v10.838041h-.956117v-10.838041zm2.506895 0v1.533115h-.956117v-1.533115zm0 3.005305v7.832736h-.956117v-7.83248zm2.39938.000256v1.487293h.03021a2.5598849 2.5598849 0 0 1 1.085391-1.267143 3.2705089 3.2705089 0 0 1 1.707443-.44798 3.4084867 3.4084867 0 0 1 1.555898.334065 3.1972962 3.1972962 0 0 1 1.100751.903128 3.848531 3.848531 0 0 1 .652258 1.3209 6.0190574 6.0190574 0 0 1 0 3.171954 3.848531 3.848531 0 0 1 -.652258 1.3209 3.1158919 3.1158919 0 0 1 -1.100751.895448 3.7128571 3.7128571 0 0 1 -2.40578.22015 2.9950653 2.9950653 0 0 1 -.789468-.318705 2.5962353 2.5962353 0 0 1 -.645091-.531433 2.2552586 2.2552586 0 0 1 -.432621-.743646h-.03021v4.371515h-.956628v-10.716446zm5.244436 2.709382a3.3498654 3.3498654 0 0 0 -.455659-1.070032 2.5074073 2.5074073 0 0 0 -.797148-.766429 2.2043169 2.2043169 0 0 0 -1.168844-.296179 2.8645112 2.8645112 0 0 0 -1.320132.273396 2.2944248 2.2944248 0 0 0 -.849882.728543 2.868863 2.868863 0 0 0 -.44798 1.062352 6.117101 6.117101 0 0 0 -.129018 1.275079 5.11593 5.11593 0 0 0 .144377 1.20673 3.1325312 3.1325312 0 0 0 .470507 1.070032 2.5291663 2.5291663 0 0 0 .849882.766685 2.5696125 2.5696125 0 0 0 1.282502.295923 2.2043169 2.2043169 0 0 0 1.168588-.295923 2.5051034 2.5051034 0 0 0 .797148-.766429 3.3457696 3.3457696 0 0 0 .455659-1.070032 5.1320572 5.1320572 0 0 0 0-2.413716zm6.574553-1.183946a1.5512902 1.5512902 0 0 0 -.447468-.538856 1.8694839 1.8694839 0 0 0 -.645091-.311026 2.9505233 2.9505233 0 0 0 -.774365-.09856 3.1435387 3.1435387 0 0 0 -.645091.06809 1.9833988 1.9833988 0 0 0 -.599525.22783 1.29095 1.29095 0 0 0 -.440301.417261 1.1475964 1.1475964 0 0 0 -.166648.637412.89339983.89339983 0 0 0 .159225.539111 1.4097286 1.4097286 0 0 0 .402158.371952 2.557325 2.557325 0 0 0 .531432.250356q.287987.09856.53092.159481l1.275335.288243a3.6447641 3.6447641 0 0 1 .811995.22015 2.6231141 2.6231141 0 0 1 .71344.417262 2.0407402 2.0407402 0 0 1 .508393.637411 1.9178658 1.9178658 0 0 1 .197111.89596 1.9639437 1.9639437 0 0 1 -.287987 1.085391 2.3550941 2.3550941 0 0 1 -.736223.728287 3.1325312 3.1325312 0 0 1 -1.009618.402414 5.2426443 5.2426443 0 0 1 -1.107663.121338 3.5974062 3.5974062 0 0 1 -2.239387-.65277q-.857305-.652515-.9789-2.094754h.956373a1.8853552 1.8853552 0 0 0 .706016 1.464766 2.556813 2.556813 0 0 0 1.601208.49329 3.5910065 3.5910065 0 0 0 .720864-.07577 2.3064563 2.3064563 0 0 0 .690657-.258036 1.646006 1.646006 0 0 0 .523496-.463083 1.1378688 1.1378688 0 0 0 .205303-.690657 1.0994706 1.0994706 0 0 0 -.144377-.584166 1.2522957 1.2522957 0 0 0 -.387055-.394734 2.4408503 2.4408503 0 0 0 -.553959-.265716q-.311026-.105975-.629732-.182004l-1.229768-.273396a6.9260246 6.9260246 0 0 1 -.865241-.280819 2.7557161 2.7557161 0 0 1 -.690657-.394478 1.6562455 1.6562455 0 0 1 -.463084-.576742 1.9104421 1.9104421 0 0 1 -.166904-.842715 1.8810034 1.8810034 0 0 1 .265716-1.017042 2.0750427 2.0750427 0 0 1 .690913-.682977 3.2103517 3.2103517 0 0 1 .948437-.379375 4.5888497 4.5888497 0 0 1 1.040081-.121595 3.8352196 3.8352196 0 0 1 1.100239.151802 2.5327501 2.5327501 0 0 1 .895704.470506 2.3126 2.3126 0 0 1 .614884.789469 2.8355845 2.8355845 0 0 1 .257781 1.108174h-.956118a1.8047189 1.8047189 0 0 0 -.182263-.766685zm3.049079 3.719a2.9420757 2.9420757 0 0 0 .463083.99426 2.6482009 2.6482009 0 0 0 .804572.728543 2.2488589 2.2488589 0 0 0 1.168843.288243 2.3243755 2.3243755 0 0 0 1.63935-.546279 2.8742388 2.8742388 0 0 0 .819675-1.457087h.956373a3.8219082 3.8219082 0 0 1 -1.115853 2.064291q-.812252.728287-2.299545.728543a3.6452761 3.6452761 0 0 1 -1.601208-.326385 2.9423317 2.9423317 0 0 1 -1.10075-.895704 3.8894891 3.8894891 0 0 1 -.629732-1.320644 5.9932025 5.9932025 0 0 1 -.205047-1.586105 5.6814085 5.6814085 0 0 1 .205047-1.518012 4.0740568 4.0740568 0 0 1 .629732-1.328068 3.1594099 3.1594099 0 0 1 1.10075-.941014 3.3849358 3.3849358 0 0 1 1.601208-.356848 3.0982287 3.0982287 0 0 1 2.694279 1.373891 4.1326782 4.1326782 0 0 1 .599781 1.41152 6.1949215 6.1949215 0 0 1 .151545 1.616568h-6.025969a4.2366095 4.2366095 0 0 0 .143866 1.070031zm4.736043-2.922108a2.8647672 2.8647672 0 0 0 -.49329-.887768 2.4403383 2.4403383 0 0 0 -.774365-.622308 2.2132765 2.2132765 0 0 0 -1.031634-.23551 2.2493709 2.2493709 0 0 0 -1.047761.23551 2.4452021 2.4452021 0 0 0 -.774109.622052 3.1089802 3.1089802 0 0 0 -.508393.895959 4.3640918 4.3640918 0 0 0 -.250357 1.039314h5.069852a3.4645482 3.4645482 0 0 0 -.189943-1.046993zm13.830546-3.164786a3.0547107 3.0547107 0 0 0 -.759006-.827355 3.3864717 3.3864717 0 0 0 -.98658-.508393 3.6555156 3.6555156 0 0 0 -1.130701-.174584 3.9074083 3.9074083 0 0 0 -1.851565.409582 3.6675471 3.6675471 0 0 0 -1.267655 1.085391 4.6856133 4.6856133 0 0 0 -.728799 1.525691 6.5655928 6.5655928 0 0 0 0 3.483492 4.6717899 4.6717899 0 0 0 .728799 1.533371 3.6644752 3.6644752 0 0 0 1.267655 1.085135 3.9074083 3.9074083 0 0 0 1.851565.409581 3.2915 3.2915 0 0 0 1.365955-.273139 3.2331346 3.2331346 0 0 0 1.047505-.743647 3.8062929 3.8062929 0 0 0 .713184-1.100494 4.5862898 4.5862898 0 0 0 .349168-1.358531h1.032401a5.8582966 5.8582966 0 0 1 -.470506 1.80651 4.4393524 4.4393524 0 0 1 -.941014 1.365955 3.9998202 3.9998202 0 0 1 -1.358531.865241 4.7675296 4.7675296 0 0 1 -1.738162.303602 5.11465 5.11465 0 0 1 -2.238875-.463083 4.6385114 4.6385114 0 0 1 -1.601208-1.236936 5.2567236 5.2567236 0 0 1 -.956629-1.791152 7.3466137 7.3466137 0 0 1 0-4.280639 5.3419678 5.3419678 0 0 1 .956629-1.798575 4.6001132 4.6001132 0 0 1 1.601208-1.244616 5.4241401 5.4241401 0 0 1 3.749207-.23551 4.3779152 4.3779152 0 0 1 1.335748.675554 3.9404308 3.9404308 0 0 1 1.001939 1.10075 3.7100412 3.7100412 0 0 1 .508393 1.502653h-1.032401a3.4599404 3.4599404 0 0 0 -.447468-1.115854zm3.635036-2.163103v4.356412h.02995a2.2949368 2.2949368 0 0 1 .971476-1.14606 2.8552956 2.8552956 0 0 1 1.533371-.432621 3.8646582 3.8646582 0 0 1 1.373631.212471 2.1810219 2.1810219 0 0 1 .88828.599781 2.2398993 2.2398993 0 0 1 .47051.948693 5.3501594 5.3501594 0 0 1 .13619 1.25972v5.039645h-.95586v-4.8881a4.5164049 4.5164049 0 0 0 -.0914-.93359 1.9705994 1.9705994 0 0 0 -.31871-.75107 1.5461705 1.5461705 0 0 0 -.614883-.50097 2.2580745 2.2580745 0 0 0 -.96354-.182008 2.4370104 2.4370104 0 0 0 -1.024978.204791 2.2158364 2.2158364 0 0 0 -.75875.561639 2.5977712 2.5977712 0 0 0 -.485866.849882 3.4581485 3.4581485 0 0 0 -.189432 1.070031v4.569139h-.956362v-10.838041zm7.580848 8.249997a2.9418197 2.9418197 0 0 0 .46308.99426 2.6482009 2.6482009 0 0 0 .80457.728543 2.2488589 2.2488589 0 0 0 1.16884.288243 2.3243755 2.3243755 0 0 0 1.63935-.546279 2.8742388 2.8742388 0 0 0 .81968-1.457087h.95637a3.8219082 3.8219082 0 0 1 -1.11585 2.064291q-.81225.728287-2.29955.728543a3.6452761 3.6452761 0 0 1 -1.60146-.326385 2.9423317 2.9423317 0 0 1 -1.10024-.895704 3.8894891 3.8894891 0 0 1 -.62973-1.320644 5.9932025 5.9932025 0 0 1 -.2053-1.586105 5.6814085 5.6814085 0 0 1 .20504-1.518012 4.0740568 4.0740568 0 0 1 .62974-1.328068 3.1594099 3.1594099 0 0 1 1.10075-.941014 3.3849358 3.3849358 0 0 1 1.6012-.356848 3.0982287 3.0982287 0 0 1 2.69428 1.373891 4.1326782 4.1326782 0 0 1 .59978 1.41152 6.1949215 6.1949215 0 0 1 .15129 1.616568h-6.02571a4.2368655 4.2368655 0 0 0 .14387 1.070031zm4.73604-2.922108a2.8647672 2.8647672 0 0 0 -.49329-.887768 2.4403383 2.4403383 0 0 0 -.77437-.622308 2.2132765 2.2132765 0 0 0 -1.03189-.23551 2.2493709 2.2493709 0 0 0 -1.0475.23551 2.4452021 2.4452021 0 0 0 -.77411.622052 3.1089802 3.1089802 0 0 0 -.50839.895959 4.3640918 4.3640918 0 0 0 -.25036 1.039314h5.06985a3.4645482 3.4645482 0 0 0 -.18994-1.046993z" fill="#58595b" transform="translate(3.709631)"/><g transform="matrix(1.2542782 0 0 1.2542782 -6.252409 -7.628347)"><path d="m9.9999991 28.490436v7.661992l10.6560329 6.152171 10.656289-6.152171v-7.661992l-10.656289 6.152428z" fill="#525c86"/><path d="m20.656032 17.695402-10.6560329 6.152171v7.661992l10.6560329-6.152428 4.020811 2.32156 6.635478-3.831124z" fill="#fdb940"/></g></g></svg>